<svg width="24" height="24" viewBox="0 0 24 24" fill="none" xmlns="http://www.w3.org/2000/svg">
<path fill-rule="evenodd" clip-rule="evenodd" d="M9 2C9.55228 2 10 2.44772 10 3V9.46399C10 9.48784 10.0038 9.51155 10.0114 9.53418C10.0635 9.69076 10.2623 9.73768 10.379 9.62097L17.4142 2.58582C17.7892 2.21076 18.298 2.00002 18.8284 2H21C21.5523 2 22 2.44772 22 3V9C22 9.55228 21.5523 10 21 10H17.5085C17.4347 10 17.4217 10.1053 17.4933 10.1233L17.4957 10.1241C20.3507 10.7016 22.5 13.2248 22.5 16.25C22.5 19.7018 19.7018 22.5 16.25 22.5C13.2248 22.5 10.7016 20.3507 10.1241 17.4957L10.1233 17.4933C10.1053 17.4217 10 17.4347 10 17.5085V21C10 21.5523 9.55228 22 9 22H3C2.44772 22 2 21.5523 2 21V18.8284C2.00002 18.298 2.21076 17.7892 2.58582 17.4142L9.62097 10.379C9.73768 10.2623 9.69076 10.0635 9.53418 10.0114C9.51155 10.0038 9.48784 10 9.46399 10H3C2.44772 10 2 9.55228 2 9V3C2 2.44772 2.44772 2 3 2H9ZM11 10C10.4477 10 10 10.4477 10 11V14.9915C10 15.0653 10.1053 15.0783 10.1233 15.0067L10.1241 15.0042C10.6202 12.5519 12.5519 10.6202 15.0042 10.1241L15.0067 10.1233C15.0783 10.1053 15.0653 10 14.9915 10H11Z" fill="#FDFEFE"/>
</svg>
