<svg width="136" height="24" viewBox="0 0 136 24" fill="none" xmlns="http://www.w3.org/2000/svg">
<path fill-rule="evenodd" clip-rule="evenodd" d="M9 2C9.55228 2 10 2.44772 10 3V9.46399C10 9.48784 10.0038 9.51155 10.0114 9.53418C10.0635 9.69076 10.2623 9.73768 10.379 9.62097L17.4142 2.58582C17.7892 2.21076 18.298 2.00002 18.8284 2H21C21.5523 2 22 2.44772 22 3V9C22 9.55228 21.5523 10 21 10H17.5085C17.4347 10 17.4217 10.1053 17.4933 10.1233L17.4957 10.1241C20.3507 10.7016 22.5 13.2248 22.5 16.25C22.5 19.7018 19.7018 22.5 16.25 22.5C13.2248 22.5 10.7016 20.3507 10.1241 17.4957L10.1233 17.4933C10.1053 17.4217 10 17.4347 10 17.5085V21C10 21.5523 9.55228 22 9 22H3C2.44772 22 2 21.5523 2 21V18.8284C2.00002 18.298 2.21076 17.7892 2.58582 17.4142L9.62097 10.379C9.73768 10.2623 9.69076 10.0635 9.53418 10.0114C9.51155 10.0038 9.48784 10 9.46399 10H3C2.44772 10 2 9.55228 2 9V3C2 2.44772 2.44772 2 3 2H9ZM11 10C10.4477 10 10 10.4477 10 11V14.9915C10 15.0653 10.1053 15.0783 10.1233 15.0067L10.1241 15.0042C10.6202 12.5519 12.5519 10.6202 15.0042 10.1241L15.0067 10.1233C15.0783 10.1053 15.0653 10 14.9915 10H11Z" fill="#101013"/>
<path d="M123.715 16.1797L126.274 8.32031H128.935L124.754 20.1201C124.514 20.7866 124.174 21.2663 123.734 21.5596C123.308 21.8529 122.708 22 121.935 22H120.114V20.0195H121.475C121.821 20.0195 122.074 19.9669 122.234 19.8604C122.408 19.7537 122.541 19.5736 122.635 19.3203L122.935 18.5801H122.194L118.374 8.32031H121.034L123.715 16.1797Z" fill="#383A3F"/>
<path fill-rule="evenodd" clip-rule="evenodd" d="M56.0762 8.08008C57.1295 8.08008 58.0502 8.31361 58.8369 8.78027C59.6233 9.23353 60.2297 9.88003 60.6562 10.7197C61.0963 11.5464 61.3164 12.5268 61.3164 13.6602C61.3164 14.78 61.0962 15.7597 60.6562 16.5996C60.2297 17.4394 59.6234 18.0929 58.8369 18.5596C58.0502 19.0129 57.1295 19.2402 56.0762 19.2402C55.023 19.2402 54.0968 19.0128 53.2969 18.5596C52.5102 18.0929 51.897 17.4396 51.457 16.5996C51.0304 15.7597 50.8164 14.78 50.8164 13.6602C50.8164 12.5268 51.0304 11.5464 51.457 10.7197C51.897 9.87992 52.5103 9.23353 53.2969 8.78027C54.0968 8.31371 55.0231 8.08014 56.0762 8.08008ZM56.0762 10.1602C55.2497 10.1603 54.6095 10.4731 54.1562 11.0996C53.7029 11.7129 53.4766 12.5668 53.4766 13.6602C53.4766 14.7667 53.7029 15.6269 54.1562 16.2402C54.6095 16.8535 55.2497 17.1601 56.0762 17.1602C56.9028 17.1602 57.5366 16.8535 57.9766 16.2402C58.4299 15.6269 58.6562 14.7667 58.6562 13.6602C58.6562 12.5668 58.4299 11.7129 57.9766 11.0996C57.5366 10.4731 56.9027 10.1602 56.0762 10.1602Z" fill="#383A3F"/>
<path fill-rule="evenodd" clip-rule="evenodd" d="M84.8691 9.83984C85.1625 9.34651 85.5832 8.93294 86.1299 8.59961C86.6765 8.25312 87.3167 8.08008 88.0498 8.08008C88.9697 8.08012 89.7631 8.31365 90.4297 8.78027C91.1095 9.23354 91.6293 9.87998 91.9893 10.7197C92.3626 11.5464 92.5498 12.5268 92.5498 13.6602C92.5498 14.7934 92.3626 15.7802 91.9893 16.6201C91.6293 17.4466 91.1095 18.093 90.4297 18.5596C89.7631 19.0129 88.9697 19.2402 88.0498 19.2402C87.3032 19.2402 86.6498 19.0797 86.0898 18.7598C85.5432 18.4398 85.1162 17.9933 84.8096 17.4199L84.75 19H82.3096V4.7998H84.8691V9.83984ZM87.4893 10.1602C86.9427 10.1602 86.4693 10.3001 86.0693 10.5801C85.6828 10.8467 85.3832 11.24 85.1699 11.7598C84.9699 12.2798 84.8691 12.9135 84.8691 13.6602C84.8692 14.3801 84.9699 15.0067 85.1699 15.54C85.3832 16.0599 85.6827 16.4603 86.0693 16.7402C86.456 17.0202 86.9231 17.1602 87.4697 17.1602C88.2029 17.1601 88.7895 16.8534 89.2295 16.2402C89.6695 15.6136 89.8896 14.7534 89.8896 13.6602C89.8896 12.5535 89.6695 11.6934 89.2295 11.0801C88.8028 10.4667 88.2226 10.1602 87.4893 10.1602Z" fill="#383A3F"/>
<path fill-rule="evenodd" clip-rule="evenodd" d="M105.377 8.08008C106.897 8.08008 108.044 8.4669 108.817 9.24023C109.604 10.0001 109.997 11.0933 109.997 12.5195V16.4004C109.997 16.6802 110.043 16.8739 110.137 16.9805C110.243 17.087 110.397 17.1396 110.597 17.1396H110.938V19C110.858 19.0267 110.724 19.0462 110.537 19.0596C110.364 19.0729 110.184 19.0801 109.997 19.0801C109.557 19.0801 109.164 19.0131 108.817 18.8799C108.471 18.7332 108.203 18.4863 108.017 18.1396C107.904 17.9222 107.826 17.6584 107.781 17.3486C107.655 17.617 107.481 17.8674 107.257 18.0996C106.91 18.4595 106.471 18.7404 105.938 18.9404C105.404 19.1404 104.803 19.2402 104.137 19.2402C103.017 19.2402 102.117 18.9868 101.438 18.4805C100.758 17.9605 100.417 17.2402 100.417 16.3203C100.417 15.4003 100.704 14.6802 101.277 14.1602C101.851 13.6402 102.724 13.2667 103.897 13.04L107.438 12.3398C107.437 11.5799 107.264 11.013 106.917 10.6396C106.57 10.2531 106.057 10.0596 105.377 10.0596C104.764 10.0596 104.277 10.2067 103.917 10.5C103.57 10.7799 103.331 11.1866 103.197 11.7197L100.597 11.5996C100.81 10.4664 101.331 9.59994 102.157 9C102.984 8.38674 104.057 8.08009 105.377 8.08008ZM104.677 14.6396C104.104 14.7596 103.691 14.9399 103.438 15.1797C103.198 15.4064 103.077 15.7067 103.077 16.0801C103.077 16.4932 103.21 16.8134 103.477 17.04C103.757 17.2667 104.151 17.3799 104.657 17.3799C105.23 17.3799 105.723 17.2666 106.137 17.04C106.55 16.8134 106.87 16.4996 107.097 16.0996C107.323 15.6996 107.438 15.2263 107.438 14.6797V14.0801L104.677 14.6396Z" fill="#383A3F"/>
<path d="M32.2002 11.2803L37.7598 4.7998H40.8398L35.5195 11.04L41.1797 19H38.2002L33.7998 12.8203L32.2002 14.6396V19H29.5996V4.7998H32.2002V11.2803Z" fill="#383A3F"/>
<path d="M44.7227 19H42.1621V8.32031H44.7227V19Z" fill="#383A3F"/>
<path d="M49.3008 19H46.7412V8.32031H49.3008V19Z" fill="#383A3F"/>
<path d="M70.0537 16.7402H76.7939V19H67.4541V4.7998H70.0537V16.7402Z" fill="#383A3F"/>
<path d="M80.291 19H77.7305V8.32031H80.291V19Z" fill="#383A3F"/>
<path d="M96.5244 10.376C96.6949 9.78643 96.9314 9.3337 97.2363 9.01953C97.6896 8.5531 98.303 8.32031 99.0762 8.32031H100.056V10.5195H99.0557C98.5093 10.5196 98.0562 10.5999 97.6963 10.7598C97.3364 10.9197 97.0626 11.173 96.876 11.5195C96.7027 11.8528 96.6162 12.2932 96.6162 12.8398V19H94.0557V8.32031H96.4561L96.5244 10.376Z" fill="#383A3F"/>
<path d="M114.588 10.376C114.758 9.78644 114.995 9.3337 115.3 9.01953C115.753 8.55312 116.367 8.32031 117.14 8.32031H118.119V10.5195H117.119C116.573 10.5196 116.12 10.5999 115.76 10.7598C115.4 10.9197 115.126 11.173 114.939 11.5195C114.766 11.8528 114.68 12.2932 114.68 12.8398V19H112.119V8.32031H114.52L114.588 10.376Z" fill="#383A3F"/>
<path d="M44.7822 6.90039H42.1221V4.62012H44.7822V6.90039Z" fill="#383A3F"/>
<path d="M49.3604 6.90039H46.7012V4.62012H49.3604V6.90039Z" fill="#383A3F"/>
<path d="M80.3506 6.90039H77.6914V4.62012H80.3506V6.90039Z" fill="#383A3F"/>
</svg>
